<svg id="Layer_1" data-name="Layer 1" xmlns="http://www.w3.org/2000/svg" xmlns:xlink="http://www.w3.org/1999/xlink" viewBox="0 0 1024 1024"><defs><style>.cls-1{fill:#98794d;}.cls-2{fill:#e7b2c8;}.cls-3{fill:#7b5a3c;}.cls-4{fill:#97794d;}.cls-5{fill:#b59e7e;}.cls-6{fill:#876945;}.cls-7{fill:#dca5bf;}.cls-8{fill:#1d1e1c;}.cls-9{fill:#fff;}.cls-10{fill:url(#linear-gradient);}.cls-11{fill:#7f4e24;}.cls-12{font-size:49.33px;font-family:DKLemonYellowSun, DK Lemon Yellow Sun;}.cls-12,.cls-18{fill:#3c3c3b;}.cls-13{fill:#d06015;}.cls-14{fill:#ef8131;}.cls-15{fill:#e16b1b;}.cls-16{fill:#f39a57;}.cls-17{fill:#ed8539;}.cls-19{fill:#222323;}.cls-20{fill:#c5601b;}.cls-21{fill:url(#linear-gradient-2);}</style><linearGradient id="linear-gradient" x1="1852.42" y1="-1012.37" x2="1852.42" y2="-1103.59" gradientTransform="translate(5.51 2763.44) rotate(-35.38)" gradientUnits="userSpaceOnUse"><stop offset="0" stop-color="#97794d"/><stop offset="0.39" stop-color="#96784d"/><stop offset="1" stop-color="#7b5a3d"/><stop offset="1" stop-color="#7b5a3c"/></linearGradient><linearGradient id="linear-gradient-2" x1="539.9" y1="968.06" x2="539.9" y2="799.79" gradientUnits="userSpaceOnUse"><stop offset="0" stop-color="#e16b1b"/><stop offset="1" stop-color="#e16b1b"/></linearGradient></defs><path class="cls-1" d="M716.52,665c1-.14,2-.26,3-.34A16.69,16.69,0,0,1,716.52,665Z"/><path class="cls-1" d="M732.77,647.33a16,16,0,0,1-.06,2.59C732.72,649.06,732.73,648.2,732.77,647.33Z"/><path class="cls-2" d="M709.11,962.81A411.56,411.56,0,0,1,770.2,949a440,440,0,0,1,62.61-4.81,429.2,429.2,0,0,1,62.67,4.17c2.59.37,5.18.69,7.76,1.15l7.73,1.36c2.57.5,5.16.87,7.71,1.46l7.66,1.67c5.12,1.09,10.17,2.45,15.2,3.86s10.05,2.82,15,4.34c-5.19-.61-10.35-1.33-15.49-2.07-2.58-.35-5.14-.76-7.71-1.15l-1.92-.29-1.93-.22-3.87-.43c-5.15-.62-10.29-1.29-15.45-1.74l-7.72-.78c-2.57-.28-5.16-.4-7.73-.64q-30.91-2.53-61.89-2.35t-61.89,3C750.35,957.31,729.79,960,709.11,962.81Z"/><path class="cls-3" d="M847.57,736.6c-3.26,2,3.78,20.56,11.25,34.39,7.91,14.61,22.95,36.27,52.94,56.63l.37-37a322.44,322.44,0,0,1-37.47-30C858.7,745.73,850.3,734.9,847.57,736.6Z"/><path class="cls-2" d="M852.26,969.38h32.66a.32.32,0,0,1,.32.32v.62a3,3,0,0,1-3,3h-30a.93.93,0,0,1-.93-.93v-2a.93.93,0,0,1,.93-.93Z" transform="translate(1736.56 1942.67) rotate(-180)"/><path class="cls-4" d="M889.94,973.49h43.58c5.15-.39,15.15-2,21.82-9.78a27.93,27.93,0,0,0,2.86-4.17c6.72-12.35.23-34.34-3.09-58.84a358.17,358.17,0,0,1-2.63-47c.13-9.86.68-19.27,1.54-28.19l-56.43-24.91a29.33,29.33,0,0,1,0,17.25c-1.07,3.17-2.41,5-6.49,11.29-3.22,4.94-6.22,10-9.47,14.93-17.26,26.09-19.44,93.62-19.86,98.13v0c-.33,10.42-.6,19.06,1.44,23.31C867.6,974.7,887.78,973.63,889.94,973.49Z"/><path class="cls-5" d="M883.49,960h23.37c9.37,0,16.64-10.29,15.57-22L917,879a30.48,30.48,0,0,0-7.21-17.5c-1-1.13-7-7.11-14.62-7-9.64.12-19.5,10.09-21.86,24.8q-2.49,29.76-5,59.53C867.43,950.12,874.47,960,883.49,960Z"/><ellipse class="cls-6" cx="953.19" cy="726.23" rx="48.22" ry="38.89" transform="translate(61.29 1526.53) rotate(-79.21)"/><path class="cls-4" d="M872.69,769.92c8.29,18.15,22.94,25.48,37.89,36.56C923,815.7,939,831.39,952.46,859.41c0-3.92,0-9.53.34-16.28.4-9.3.61-13.94,1.22-17.66,2.47-14.93,9-18.13,13-34a73.86,73.86,0,0,0,2.24-15.73l8.82-28.76c-14.35-12.17-27.43-15.24-34.34-16.19-12-1.66-23.12.57-27.85,1.51C903.05,734.83,897,738.74,884,739a69.07,69.07,0,0,1-14.34-1.28l-2.08,2.79A62.38,62.38,0,0,0,872.69,769.92Z"/><rect class="cls-7" x="866.96" y="737.14" width="8.19" height="6.28" rx="3.14" transform="translate(1205.72 1833.32) rotate(-147.38)"/><path class="cls-5" d="M868,753.12c2.55,1.34,7.12,3.8,12.58,7.24,15.94,10,50.63,32.55,54.7,64.31a56.33,56.33,0,0,1-.72,16.4c-2.25,13.66-7.63,20.2-11.38,29.87-3,7.7-5.73,19.34-3.59,35.78l-47.24-16a92.35,92.35,0,0,1,1-11.41c.7-4.62,3-17.58,11.65-33.74,8.3-15.51,13.37-17,14.81-27.4.15-1,1.34-10.21-2.21-17.58a33.21,33.21,0,0,0-3.7-5.78,29.19,29.19,0,0,0-5-4.78c-7.7-6-13.32-14.86-13.32-14.86A54.84,54.84,0,0,1,868,753.12Z"/><circle class="cls-8" cx="928.47" cy="751.75" r="4.15"/><circle class="cls-9" cx="930.64" cy="750.98" r="0.71"/><path class="cls-9" d="M908.54,757.72a29.13,29.13,0,0,1,7.21,4.34,31.74,31.74,0,0,1,5.76,6.21,31.24,31.24,0,0,1,3.84,7.55,28.62,28.62,0,0,1,1.57,8.27,40.33,40.33,0,0,0-6.36-15.15A40.8,40.8,0,0,0,908.54,757.72Z"/><path class="cls-9" d="M906.9,758.73a16.44,16.44,0,0,1,4.35,3.89,18.57,18.57,0,0,1,1.64,2.47,19.37,19.37,0,0,1,1.2,2.72,17,17,0,0,1-.1,11.59,28.17,28.17,0,0,0,.16-5.72,22.27,22.27,0,0,0-1.15-5.49A24.85,24.85,0,0,0,906.9,758.73Z"/><path class="cls-9" d="M904.63,759.47a13.56,13.56,0,0,1,3.27,4.83,14.4,14.4,0,0,1,1,5.85,15.43,15.43,0,0,1-1.44,5.75,14.92,14.92,0,0,1-3.44,4.71,20.75,20.75,0,0,0,3.72-10.51,16.86,16.86,0,0,0-.72-5.5A20.7,20.7,0,0,0,904.63,759.47Z"/><path class="cls-4" d="M945.07,702.49c1.26-1.18,22.39-20.16,45.35-11.42,12.52,4.77,18.57,15.11,20.21,18.18,8.17,15.3,4.68,33.36-3.52,45.59-12.93,19.3-35.32,20.74-37.86,20.86-5.52-7.44-11.62-15.16-18.34-23.06-7.06-8.3-14-15.89-20.81-22.81C931.25,724.3,934.58,712.3,945.07,702.49Z"/><path class="cls-2" d="M944.4,735.35a38,38,0,0,1,19,24.93c18.21-3,29.39-16.54,28.12-28.12a21.41,21.41,0,0,0-14.85-17.44c-9.47-2.65-17.65,3.35-21.11,6A35.75,35.75,0,0,0,944.4,735.35Z"/><path class="cls-10" d="M845.25,813.81c-1.48,3.53,15,14.57,29.09,21.52,14.9,7.34,39.71,16.29,75.95,15.52q-1-14-2.09-27.93a415.82,415.82,0,0,1-67-5.24C861.12,814.44,846.61,810.56,845.25,813.81Z"/><path class="cls-2" d="M905,970.38h32.66a.32.32,0,0,1,.32.32v.62a3,3,0,0,1-3,3H905a.93.93,0,0,1-.93-.93v-2A.93.93,0,0,1,905,970.38Z" transform="translate(1842.1 1944.67) rotate(-180)"/><path class="cls-11" d="M876.87,751.79a6.07,6.07,0,0,1-1.85,1.6,6.57,6.57,0,0,1-2.35.81,6.66,6.66,0,0,1-2.48-.11,6.3,6.3,0,0,1-2.25-1,11.3,11.3,0,0,0,2.32.54,9.08,9.08,0,0,0,2.33,0,8.44,8.44,0,0,0,2.23-.63A11.2,11.2,0,0,0,876.87,751.79Z"/><path class="cls-9" d="M985.23,639.72c.42,0,9.82.35,14.8-7.26,4-6.12,2.84-13.85-.87-18.86a17.57,17.57,0,0,0-9.91-6.41c.38-1.74,2.47-11.87-3.58-19.41-6.92-8.62-22-10.68-34.72-2.55-1.17-1-9.61-7.75-20.87-5.59a25.64,25.64,0,0,0-19.44,18A14.24,14.24,0,0,0,908,625.5c.64,1.57,6.1,14.39,20.61,18.57,14.69,4.24,26.25-4,27.57-4.93a16.61,16.61,0,0,0,10.16,8.42c6.41,1.69,11.58-1.43,13.06-2.33A18.78,18.78,0,0,0,985.23,639.72Z"/><ellipse class="cls-9" cx="987.33" cy="651.51" rx="4.6" ry="3.45"/><ellipse class="cls-9" cx="979.97" cy="661.04" rx="3.9" ry="2.93"/><ellipse class="cls-9" cx="986.04" cy="668.77" rx="2.17" ry="1.63"/><text class="cls-12" transform="translate(942.63 630.03)">?</text><path class="cls-4" d="M90.68,340c-.36.61-.74,1.2-1.13,1.77A11.3,11.3,0,0,1,90.68,340Z"/><path class="cls-4" d="M93.09,356.72a11.94,11.94,0,0,1-1.38-1.18C92.17,355.92,92.64,356.31,93.09,356.72Z"/><path class="cls-13" d="M702.16,696a6.17,6.17,0,0,1,9.79,6.81c-7.2,19.7-10.32,45.32-26.42,88.43-25.46,68.18-18.54,132.51-1.06,142.57,2.12,1.22,11.12,5.52,14.2,14.31.59,1.69,2.25,6.41,0,11.31-.09.2-.19.39-.28.58a11.37,11.37,0,0,1-10.11,5.95h-56a10.76,10.76,0,0,1-1.71-.13c-6.9-1.06-15.26-3.52-18.18-9.84-4.16-9,4.83-21.13,6.84-24.16,9.56-14.45,10.58-48.63-25.36-134.44a11.63,11.63,0,0,1-.08-8.77l.41-1C615.86,734.48,676.28,717.94,702.16,696Z"/><path class="cls-13" d="M301,719.8c-14,5.43-63.13,26.4-86.74,78.86-6.32,14-26.21,58.24-5.13,94.49,19.41,33.37,61.78,45,88.72,44.73l64.26-.6s99.56,1.44,128.48-.32c2.44-.14,7.22-4.08,8.67-9.47,1.81-6.71-3-13.48-4.66-15.87-12.46-17.64-48.75-26-58.92-29-52.61-15.66-73.77-79.78-74.82-82.81-20.48-59.43,9.65-101.83-1.75-110.69C354,685.09,340.3,687.64,301,719.8Z"/><path class="cls-14" d="M241.06,741.5c-6.52,3-54.23,24.46-100.23.54-38-19.78-56.84-61.31-57.89-95.86-2-65.31,61.63-75.14,99.65-167,3.24-7.85,52.85-131.62-3.84-183.59-27.6-25.31-76.33-29.85-113.85-10-43.67,23.09-61,73.34-55,110.09,5.67,34.9,29,36.75,38.91,73.08,12,43.91-15.23,66.33-29.42,128.12-3.87,16.87-27.5,116.42,18,174.63,57.28,73.23,193.7,42.44,199.58,41"/><path class="cls-15" d="M197.82,323.73a149.9,149.9,0,0,0-49-2.59c-47,5.35-78.38,32-90.43,43.47,6.74-4.28,46.89-28.86,95-14.94,27.07,7.84,44.23,24.3,52,32.9a163.09,163.09,0,0,0-.76-31.23,124.51,124.51,0,0,0-2.75-14.82A115.12,115.12,0,0,0,197.82,323.73Z"/><path class="cls-15" d="M196.54,436.13a94.16,94.16,0,0,0-20.36-9.73c-31.23-10.51-59.71-1.55-71.64,3.06,5.91-1.44,39.21-9,66.36,11.41a69.16,69.16,0,0,1,18.17,20.57q2.38-7.15,4.62-14.87,1.53-5.31,2.85-10.44"/><path class="cls-15" d="M162.91,517.26c-3.11,4.89-6.56,10-10.4,15.15q-3.57,4.85-7.12,9.2a30.78,30.78,0,0,0-5-15.28c-8-12.07-25.05-17.44-43.25-14a92.27,92.27,0,0,1,65.73,5Z"/><path class="cls-15" d="M102.54,590.16a46.39,46.39,0,0,0-13.81-7.69c-13.87-4.84-26.2-1.57-31,0,2.05-.23,15.47-1.47,25.63,8.34a30.86,30.86,0,0,1,8.54,15.45c1.58-2.92,3.43-6,5.61-9.25C99.2,594.52,100.89,592.24,102.54,590.16Z"/><path class="cls-15" d="M82.94,646.18a34.93,34.93,0,0,0-42.1,6.71A33.37,33.37,0,0,1,66,649.72a33.26,33.26,0,0,1,19,14.52c-.22-2.35-.47-4.72-.73-7.13Q83.66,651.54,82.94,646.18Z"/><path class="cls-15" d="M98.64,700.75a36.61,36.61,0,0,0-23.06,2.16C60,710,55.71,725.79,55.16,728a44.8,44.8,0,0,1,54.64-11.11c-1.64-2-3.32-4.11-5-6.45A109.83,109.83,0,0,1,98.64,700.75Z"/><path class="cls-15" d="M140.83,742A32,32,0,0,0,124.2,755c-6.39,10.25-6,23.9.81,35.34a37.22,37.22,0,0,1,33.44-41.21q-3.07-.95-6.33-2.16A117.77,117.77,0,0,1,140.83,742Z"/><path class="cls-15" d="M735.36,632.94c-.24,1.92-.56,4.13-1,6.58,0,0-1.25,7.61-2.88,14.21-2.8,11.36-13.09,26.93-14.29,28.57-10.62,14.62-149.38,93.45-346,191.44,11.87,15.76,28.55,31.18,50.92,37.84,10.17,3,46.46,11.4,58.92,29,1.68,2.38,6.47,9.16,4.66,15.86-1.45,5.4-6.24,9.33-8.67,9.48-28.93,1.75-128.49.31-128.49.31q-32.13.3-64.26.6c-43.31.4-73.53-29.92-88.71-44.73-47.92-46.73-63.64-142-29.24-207.85C233.92,585.09,508.94,542.15,536,503.17c2.1-3,13.21-21.16,32.75-25.13a104.94,104.94,0,0,1,11.08-.63C665.37,477.41,735.36,547.4,735.36,632.94Z"/><path class="cls-14" d="M371.25,873.74c-5-13,20.85-58.33,124.8-140.16,50.6-39.82,126.51-89.6,233.16-128.31a35.69,35.69,0,0,1,7,9.48c0,2.25,0,4.94-.11,8-.21,5.34-.63,9.25-.73,10.19-1.12,11.34,2.35,24.78,1.87,38a71.68,71.68,0,0,1-6,25.88c-.51-1.1-3.76-7.94-7.52-9a34.69,34.69,0,0,0-3.88-.82c-1.15-.17-3-.38-3-.38.36,1,.77,2.11,1.18,3.41,0,0,.69,2.18,1.22,4.42.68,2.83,1.42,13.38.31,27.69l-16-13.55a36.19,36.19,0,0,1,6.62,18.36,35.64,35.64,0,0,1-2.1,14.75c-.3-1-2.41-7.85-9.33-10.84a16.5,16.5,0,0,0-9.94-.9,20.11,20.11,0,0,1,6.06,13.4c.35,10.22-7.78,16.3-8.49,16.81a14.92,14.92,0,0,0-3.08-7.68,15.13,15.13,0,0,0-5.31-4.23,15.39,15.39,0,0,0-3.33-1.15,66.49,66.49,0,0,1-2.3,28.24,11.4,11.4,0,0,0-2.69-9,11,11,0,0,0-6.71-3.4,33.55,33.55,0,0,1-5.2,21.46,7.6,7.6,0,0,0-3.65-6,7.18,7.18,0,0,0-7.88.77,25.59,25.59,0,0,1-5.19,24.4,11.75,11.75,0,0,0-2.3-9c-4-4.94-10.46-4.08-10.76-4a41.84,41.84,0,0,1-10.18,28.62,13.5,13.5,0,0,0-4.42-8.65,14,14,0,0,0-14.73-1.74,43,43,0,0,1-3,32.12,19,19,0,0,0-4.16-11.1c-.16-.2-.32-.39-.49-.58a17.72,17.72,0,0,0-20.2-4.31c-18.81,8-32.08,15.47-56.23,20.95a93.54,93.54,0,0,1-17,2.25,51.93,51.93,0,0,1-4.92,13.81,52.48,52.48,0,0,1-12.17,15.33,24.87,24.87,0,0,0-5.11-11.79,25.13,25.13,0,0,0-13.75-8.64,34.78,34.78,0,0,1,3.14,12.57,35.17,35.17,0,0,1-3.93,18.07,26.13,26.13,0,0,0-5.11-16.11,25.23,25.23,0,0,0-8.08-6.92h0a36.88,36.88,0,0,1-12.33,27,29.72,29.72,0,0,0-12.57-20.82,21.85,21.85,0,0,1-9.82,20.43c-2.27-4.36-5.92-9.57-11.4-10.61-7.87-1.49-13.33,6.83-20.52,4.92C381,885.25,375.12,883.7,371.25,873.74Z"/><path class="cls-16" d="M790.4,587.29l-11.76-6.52a31,31,0,0,1,.5,27l-7.18-8.6a56.58,56.58,0,0,1-7.75,44.14l-7.69-11.21a51.92,51.92,0,0,1-1.27,13.62,52.63,52.63,0,0,1-7.5,17.44l-12.52-3.47a45.53,45.53,0,0,1-7,30.86l-11-8.66A29.69,29.69,0,0,1,707.88,710l-9.12-8a59.6,59.6,0,0,1-34.18,28.55,59.28,59.28,0,0,1-33.89-29.09l-9.24,7.88a29.52,29.52,0,0,1-7-9.54,30.53,30.53,0,0,1-2-18.7l-11.1,8.49a45.57,45.57,0,0,1-6.48-31l-12.58,3.28a52.21,52.21,0,0,1-8.27-31.2l-7.87,11.09a56.48,56.48,0,0,1-7-44.26L551.83,606A32.42,32.42,0,0,1,550,586.16a29.76,29.76,0,0,1,2.76-7.19q-5.93,3.15-11.86,6.33a157.83,157.83,0,0,1-5.83-25.83c-.69-4.86-1.52-12.45-1.53-33,0-23.54,1.09-33.25.65-33.28t-.09.09c.42-3.89.81-6.66,1-8.11L570.86,309A168,168,0,0,1,633,364.88a126.44,126.44,0,0,1,63.18.5,168.55,168.55,0,0,1,63.07-54.86q17,88.78,33.91,177.55-2.52-12.87-5.56-24.83s0-.11,0-.16c-.52-2.14-1.06-4.26-1.65-6.35.23,1.84,8,41.95,8.27,80.7A305.68,305.68,0,0,1,790.4,587.29Z"/><path class="cls-17" d="M790.4,587.29l-11.75-6.52a31,31,0,0,1,.5,27,32.33,32.33,0,0,0-5.75-13.06c-3.12-4.16-6.66-6.29-11.56-9.67s-9-5.12-19.64-11.88c-26.6-17-49.15-54.08-56-82-1.2-4.86-3.57-16.28-12.45-21a20,20,0,0,0-17.75-.14c-8.86,4.49-11.5,15.64-12.68,20.05-7.12,26.68-29.76,64.78-57.38,81.77-6.66,4.09-13.33,8.18-20.25,11.82-3.79,2-6.79,3.45-9.41,6.74-4.11,5.16-4.62,11.45-4.5,15.49a31.38,31.38,0,0,1,.93-27l-11.86,6.33a234.23,234.23,0,0,1-6.5-31.62c-3.65-27.08-1.76-49.19.75-68.49,4.69-36,16.25-98.16,35.73-176.19A168.33,168.33,0,0,1,633,364.85a126.59,126.59,0,0,1,63.18.51,168.51,168.51,0,0,1,63.06-54.87c23.11,83.28,33,149,34.79,182.17a560.78,560.78,0,0,1-.44,64.78C792.7,569.65,791.45,579.87,790.4,587.29Z"/><path class="cls-18" d="M680.75,542.75a17.31,17.31,0,0,1-13-5.29,17.81,17.81,0,0,1-4.39-10.85l.16-19.81,2.46,0-.16,19.74a15.53,15.53,0,0,0,3.8,9.4c5.75,6.28,14.9,4.23,15.93,4a18.38,18.38,0,0,0,9.34-5.82l1.9,1.47a20.91,20.91,0,0,1-10.61,6.58A23.38,23.38,0,0,1,680.75,542.75Z"/><path class="cls-18" d="M648,542.48a23.24,23.24,0,0,1-5.46-.67,20.93,20.93,0,0,1-10.5-6.75l1.93-1.43a18.43,18.43,0,0,0,9.24,6c1,.27,10.15,2.47,16-3.71a15.51,15.51,0,0,0,3.95-9.42l.16-19.67,2.46,0-.16,19.74a17.76,17.76,0,0,1-4.56,10.86C657.11,541.6,651.92,542.51,648,542.48Z"/><path class="cls-19" d="M677.63,499.05l-10.48,10.31a3.51,3.51,0,0,1-5,0l-10.32-10.48a3.53,3.53,0,0,1,2.55-6l20.78.17A3.53,3.53,0,0,1,677.63,499.05Z"/><circle class="cls-9" cx="715.42" cy="459.83" r="26.62"/><circle class="cls-19" cx="721.52" cy="463.49" r="17.5"/><circle class="cls-9" cx="728.52" cy="469.73" r="4.17"/><circle class="cls-9" cx="611.61" cy="459" r="26.62"/><circle class="cls-19" cx="617.71" cy="462.66" r="17.5"/><circle class="cls-9" cx="624.71" cy="468.9" r="4.17"/><path class="cls-15" d="M563.26,410.64q8.19-33.43,16.39-66.88a63.14,63.14,0,0,1,32.55,28.32,124.15,124.15,0,0,0-11.12,5.65A131.07,131.07,0,0,0,563.26,410.64Z"/><path class="cls-15" d="M764.43,412.25q-7.66-33.57-15.32-67.14a63.15,63.15,0,0,0-33,27.8c3.58,1.67,7.28,3.6,11,5.82A131.23,131.23,0,0,1,764.43,412.25Z"/><path class="cls-15" d="M633,364.88a51.87,51.87,0,0,0-9.8,21.71c-3.41,17.81,3.86,31.89,6.24,36.1a96.62,96.62,0,0,1,21.37-60.93c-2.79.26-5.8.65-9,1.21S635.74,364.17,633,364.88Z"/><path class="cls-15" d="M696.31,365.38a51.91,51.91,0,0,1,9.46,21.87c3.12,17.86-4.37,31.82-6.82,36A96.77,96.77,0,0,0,678.56,362c3,.35,6.26.84,9.68,1.52C691.1,364.06,693.79,364.7,696.31,365.38Z"/><path class="cls-15" d="M674.88,361.62a260,260,0,0,1-11.41,71.63,201.68,201.68,0,0,1-9.2-71.79c2.7-.19,5.56-.32,8.57-.34,4.31,0,8.34.17,12,.5"/><path class="cls-20" d="M714.31,506a1,1,0,0,1-.88-.67.93.93,0,0,1,.63-1.15L798,479.76a.92.92,0,0,1,1.14.63.9.9,0,0,1-.63,1.14l-83.9,24.41A.84.84,0,0,1,714.31,506Z"/><path class="cls-20" d="M797.74,540.87a.82.82,0,0,1-.26,0L714,515.08a.92.92,0,1,1,.54-1.76L798,539.06a.93.93,0,0,1,.62,1.16A.94.94,0,0,1,797.74,540.87Z"/><path class="cls-20" d="M802.92,511.61l-88.64-.71a.91.91,0,0,1-.92-.93.93.93,0,0,1,.93-.92l88.65.71a.93.93,0,1,1,0,1.85Z"/><path class="cls-20" d="M615.06,505.18a.82.82,0,0,1-.26,0L531.29,479.4a.93.93,0,1,1,.55-1.77l83.5,25.74a.92.92,0,0,1,.61,1.16A.91.91,0,0,1,615.06,505.18Z"/><path class="cls-20" d="M531.09,538.74a.92.92,0,0,1-.88-.67.9.9,0,0,1,.63-1.14l83.9-24.41a.93.93,0,0,1,.51,1.78l-83.9,24.4A.82.82,0,0,1,531.09,538.74Z"/><path class="cls-20" d="M615,510.11l-88.64-.71a.91.91,0,0,1-.92-.93.93.93,0,0,1,.93-.92l88.65.71a.93.93,0,1,1,0,1.85Z"/><path class="cls-21" d="M564.14,799.79C560.86,896,570,926.71,580.19,935c1.93,1.57,14.88,11.27,13.31,20.9a14.66,14.66,0,0,1-3.69,7.25c-2.74,3.11-7.36,4.9-12.21,4.9H520.18a17,17,0,0,1-11.13-3.85,17.25,17.25,0,0,1-4.75-6.39c-3.34-8.3,4.52-18.71,5.56-20.25,6.28-9.21,4.58-39.89-23.7-126Z"/><path class="cls-14" d="M482.45,816c1,2.48,3.74,3.46,4.81,7.41a11.32,11.32,0,0,1,.3,4.31,10.14,10.14,0,0,0,5.42-5.41,10.37,10.37,0,0,0-2.41-10.82c4.28.15,7.89,2.42,9.15,5.75a8.36,8.36,0,0,1,.17,5.07,18.79,18.79,0,0,0,6-11.72,10.73,10.73,0,0,0,.3,6.53,10.48,10.48,0,0,0,2.41,3.69,10.37,10.37,0,0,1,.42-4.11c1.58-5,6.56-7,7.4-7.32a16.41,16.41,0,0,1,2.18,6.36,16.15,16.15,0,0,1-.38,6,12,12,0,0,0,5.71-12.63,18.54,18.54,0,0,1,8.72,8.12,5.75,5.75,0,0,0,1.18-4.24,5.41,5.41,0,0,0-1.18-2.67A12.16,12.16,0,0,1,545,817.5a8.62,8.62,0,0,0,1.82-5.32,8.5,8.5,0,0,0-1.22-4.3A18.81,18.81,0,0,0,556.11,816a12.59,12.59,0,0,1-1.9-5.46,13,13,0,0,1,1.9-8.07,11.18,11.18,0,0,0,4.21,13.83,14.21,14.21,0,0,1,1.55-5.9,15.48,15.48,0,0,1,9-7.33,16.84,16.84,0,0,0-5.13-6.09c-7.1-5-14.68-1.06-32.72,0-8.68.51-8.25-.33-21.77.28-15.15.67-19.45,1.9-23,5.06S480.71,811.84,482.45,816Z"/><path class="cls-14" d="M237.79,639.67a120.57,120.57,0,0,0,15.38,42.5c25.36,42.45,69.6,55.22,81.57,58.26a278.25,278.25,0,0,1-94.52-29.78,274.53,274.53,0,0,1-47.86-32.11,276.78,276.78,0,0,1,45.43-38.87Z"/><path class="cls-14" d="M271.6,618.7a79.55,79.55,0,0,0,10.14,22.38c17.3,26.31,45.42,34.26,54.67,36.45-6.77-3.87-25-15.5-34.74-38.73a78.94,78.94,0,0,1-6-32.51l-24,12.41"/><path class="cls-14" d="M367,574.94l-23.46,9.4a63.8,63.8,0,0,0,8.24,34c12.95,22.57,35.71,29,40.43,30.18A83.74,83.74,0,0,1,367,574.94"/><path class="cls-14" d="M424,553.5a83.28,83.28,0,0,0,1.8,27.59c8.47,35.45,38.27,53.93,46.31,58.58-6-6.1-23.29-25.37-26.22-55.24a90.36,90.36,0,0,1,5.52-40.76L424,553.5"/><path class="cls-9" d="M665.52,220.22c-1.19.06-27.68,1-41.72-20.45-11.31-17.26-8-39,2.45-53.17,9.61-13,23.33-16.94,27.94-18.06-1.09-4.89-7-33.44,10.08-54.69,19.51-24.32,61.88-30.11,97.86-7.19,3.3-2.74,27.07-21.84,58.81-15.76,25.78,4.93,46.91,24.57,54.8,50.71,18.17,2.18,32.71,15.69,35.79,32.73,3.49,19.34-8.46,39.32-28.42,45.8-1.8,4.42-17.18,40.56-58.08,52.35-41.39,11.93-74-11.15-77.71-13.9-1.32,2.63-9.74,18.72-28.63,23.72-18.05,4.77-32.63-4-36.81-6.55A53.1,53.1,0,0,1,665.52,220.22Z"/><ellipse class="cls-9" cx="659.6" cy="253.44" rx="12.98" ry="9.73"/><ellipse class="cls-9" cx="680.33" cy="280.32" rx="11" ry="8.25"/><ellipse class="cls-9" cx="663.22" cy="302.1" rx="6.11" ry="4.58"/><circle class="cls-18" cx="723.32" cy="142.67" r="13.31"/><circle class="cls-18" cx="769.58" cy="142.67" r="13.31"/><circle class="cls-18" cx="815.85" cy="142.67" r="13.31"/><path class="cls-3" d="M949.63,954.63a20.31,20.31,0,0,0-4.41.78,5,5,0,0,1-3.69-.26c-.54-.32-1.36-1.09-1.24-1.83s1.17-1.19,3.26-2.17l.85-.37c1.11-.51,3.91-1.79,4.49-4.21a4.26,4.26,0,0,0-1.18-4.12,4.17,4.17,0,0,0-2.67-.9,6.15,6.15,0,0,0-2.61.69,12.1,12.1,0,0,0-4.24,3,9.5,9.5,0,0,0-2.29,3.82,8.7,8.7,0,0,0-.22,3.91,7.33,7.33,0,0,0,1.51,3.38,7.51,7.51,0,0,0,2.38,1.85,9.29,9.29,0,0,0,3.36,1,10.54,10.54,0,0,0,5.93-1.27c1.76-.85,1.94-1.43,2-1.72a1.63,1.63,0,0,0-.72-1.47A1.24,1.24,0,0,0,949.63,954.63Zm-10.18-4.8c-.47-.55.95-2.93,2.95-3.94.62-.31,1.85-.8,2.2-.39s-.5,1.82-.57,1.92a4.76,4.76,0,0,1-1.57,1.42C941.84,949.23,939.86,950.32,939.45,949.83Z"/><rect class="cls-3" x="940.62" y="932.16" width="2.47" height="7.17" rx="1.21" transform="translate(-148.54 178.29) rotate(-10.03)"/><rect class="cls-3" x="946.27" y="932.36" width="2.47" height="7.17" rx="1.21" transform="translate(376.68 -267.35) rotate(19.97)"/><rect class="cls-3" x="935.67" y="934.23" width="2.47" height="7.17" rx="1.21" transform="translate(2257.49 1053.36) rotate(139.97)"/><rect class="cls-3" x="932.56" y="938.53" width="2.47" height="7.17" rx="1.21" transform="matrix(-0.37, 0.93, -0.93, -0.37, 2157.31, 429.7)"/><rect class="cls-3" x="950.67" y="935.33" width="2.47" height="7.17" rx="1.21" transform="translate(1010.92 -396.82) rotate(47.92)"/><path class="cls-13" d="M393,950a4.09,4.09,0,0,1-.87-2.5h0a7.23,7.23,0,0,1,1.53-4.14h0a11,11,0,0,1,3.28-3h0a5,5,0,0,1,2.39-.76h0a2.32,2.32,0,0,1,.46,0h0a4.4,4.4,0,0,1,2.66,1.32h0c.11.13.22.25.31.38h0c.07-.8.16-1.79.25-2.82h0c.2-2.43.4-5.12.39-5.94h0c0-.07,0-.12,0-.14h0a6.52,6.52,0,0,1-.22-1.35h0a1.55,1.55,0,0,1,.18-.82h0a1,1,0,0,1,.86-.49h0a2,2,0,0,1,2,2h0a2,2,0,0,1-.11.68h0v0h0a.54.54,0,0,0,0,.08h0c0,.07,0,.17-.05.3h0c0,.25-.08.6-.13,1h0c-.09.84-.2,2-.3,3.19h0c-.19,2.24-.36,4.85-.42,6.8h0a2.33,2.33,0,0,1,.67.31h0a1.31,1.31,0,0,1,.48.68h0a2.37,2.37,0,0,1,.08.57h0a1.28,1.28,0,0,1-.25.81h0a1.54,1.54,0,0,1-.58.44h0a7.18,7.18,0,0,1-.73.27h0a8.59,8.59,0,0,1,.13,1.35h0a3.84,3.84,0,0,1-.06.76h0a1.38,1.38,0,0,1-.39.74h0a.94.94,0,0,1-.65.25h-.13a2.2,2.2,0,0,1-1-.35h0a1.56,1.56,0,0,1-.55-.73h0c0-.12-.07-.24-.1-.35h0c-.42.28-1,.63-1.65,1h0a11.43,11.43,0,0,1-4.84,1.58h0A3.19,3.19,0,0,1,393,950Zm3.42-5.84a6.14,6.14,0,0,0-1.61,3.41h0a.84.84,0,0,0,.21.64h0a1,1,0,0,0,.8.28h0a6.77,6.77,0,0,0,2.8-1h0c1-.54,2-1.23,3.05-1.86h0c0-.21-.11-.49-.2-.8h0a6,6,0,0,0-.94-2h0a1.46,1.46,0,0,0-.88-.6h0l-.23,0h0a4.91,4.91,0,0,0-3,2Zm12.78,4.06a11.71,11.71,0,0,1-1.52-3.59h0a30,30,0,0,1-.85-5.78h0c0-.08,0-.16,0-.23h0a1.63,1.63,0,0,1,.28-1h0a1.15,1.15,0,0,1,.87-.43h0l.23,0h0a1.56,1.56,0,0,1,1.16.75h0a2,2,0,0,1,.22.87h0v.71h0a24.44,24.44,0,0,0,.42,4.53h0a5.88,5.88,0,0,0,1,2.5h0a.74.74,0,0,0,.59.34h0a.89.89,0,0,0,.39-.11h0a2.84,2.84,0,0,0,1.2-1.39h0a9,9,0,0,0,.66-2.26h0a21.25,21.25,0,0,0,.23-3.51h0s0-.07,0-.1h0a1.82,1.82,0,0,1,.21-.93h0a1.29,1.29,0,0,1,1.18-.62h.1a1.25,1.25,0,0,1,.83.33h0a1.77,1.77,0,0,1,.39.59h0a2.22,2.22,0,0,1,.18.73h0v.12c0,.33-.11,1.75-.36,3.37h0a14.62,14.62,0,0,1-1.5,4.91h0a3.46,3.46,0,0,1-2.4,1.87h0a2.74,2.74,0,0,1-.48,0h0a3.57,3.57,0,0,1-3-1.75Zm11.39,2.54-.22,0h0a1.54,1.54,0,0,1-1.09-.62h0a1.59,1.59,0,0,1-.25-.58h0l-.15,0h0a1.35,1.35,0,0,1-.82-.62h0l0,0v0a.57.57,0,0,1,0-.17h0a.22.22,0,0,1,0-.08h0s0-.11,0-.19h0c0-.15,0-.35,0-.59h0c0-.49,0-1.17-.05-1.94h0a51,51,0,0,1,.18-5.34h0a1.68,1.68,0,0,1-.42-.93h0a.37.37,0,0,1,0-.11h0a1.32,1.32,0,0,1,.39-.89h0a2.44,2.44,0,0,1,.46-.39h0l.06-.27h0c.08-.34.17-.82.27-1.36h0a20.85,20.85,0,0,0,.36-3.62h0v-.18h0a2.37,2.37,0,0,0-.11-.5h0a3.55,3.55,0,0,1-.16-.88h0a1.32,1.32,0,0,1,.27-.85h0a1.34,1.34,0,0,1,.92-.46h.12a1.18,1.18,0,0,1,.77.3h0a2.35,2.35,0,0,1,.5.62h0a4.25,4.25,0,0,1,.47,1.87h0V933h0a10.41,10.41,0,0,1-.25,2.28h0c-.13.62-.28,1.31-.45,2.29h0a11.2,11.2,0,0,1,3.17.44h0a5.21,5.21,0,0,1,3.37,2.63h0a2.26,2.26,0,0,1,.22,1h0a4.6,4.6,0,0,1-.75,2.31h0a15,15,0,0,1-1.69,2.24h0a41.48,41.48,0,0,1-3.4,3.34h0l-.36.33h0a2.6,2.6,0,0,0-.25.32h0a1.23,1.23,0,0,1-.4.43h0a1,1,0,0,1-.5.14h0Zm-.15-6.66a30.62,30.62,0,0,0,.2,3.22h0c.27-.21.59-.48.93-.77h0a18.37,18.37,0,0,0,2.86-3h0a3.37,3.37,0,0,0,.75-1.73h0a.85.85,0,0,0-.08-.34h0a2.22,2.22,0,0,0-1.35-.86h0a8.09,8.09,0,0,0-2.44-.33h0l-.52,0h0c0,.19-.07.43-.12.71h0a23.8,23.8,0,0,0-.23,2.5h0v.57Zm10,7.28a1.82,1.82,0,0,1-1-.34h0a1.1,1.1,0,0,1-.43-.66h0a4.78,4.78,0,0,1-.15-.77h0c-.07-.6-.1-1.36-.11-2.26h0c0-3.45.29-8.8.49-11.9h0c.1-1.58.16-2.92.22-4h0a12.53,12.53,0,0,1,.28-2.29h0a1.08,1.08,0,0,1,.27-.46h0a1.45,1.45,0,0,1,1-.43h0a1.76,1.76,0,0,1,1.24.61h0a1.43,1.43,0,0,1,.32.55h0a2.09,2.09,0,0,1,.09.67h0a25.18,25.18,0,0,1-.25,2.75h0c-.17,1.38-.39,3.34-.65,6.19h0c-.2,2.23-.28,4.5-.26,6.47h0c0,1.27.07,2.42.17,3.35h0c0,.13,0,.28,0,.46h0a3.57,3.57,0,0,1-.06.84h0a1.73,1.73,0,0,1-.42.89h0a1.09,1.09,0,0,1-.75.31h0Zm4.42-1.94.26-.55-.27.55a4.08,4.08,0,0,1-1.67-1.72h0a6,6,0,0,1-.75-2.87h0a6,6,0,0,1,.44-2.33h0a13.28,13.28,0,0,1,2.33-4h0a4.1,4.1,0,0,1,2.61-1.48h0l.23,0h0a4.24,4.24,0,0,1,2.53.94h0a5.48,5.48,0,0,1,1.92,3.43h0a7.83,7.83,0,0,1,.11,1.16h0a7.07,7.07,0,0,1-2.27,5.19h0a6.68,6.68,0,0,1-4.24,2h0a2.85,2.85,0,0,1-1.23-.25Zm3.43-9.63-.19.07h0a3.29,3.29,0,0,0-.77.5h0a7.46,7.46,0,0,0-2.09,3.6h0a3.08,3.08,0,0,0-.1.81h0a3.44,3.44,0,0,0,.31,1.44h0a1.26,1.26,0,0,0,.71.74h0a.5.5,0,0,0,.23,0h0a3.15,3.15,0,0,0,1.66-.8h0a4.77,4.77,0,0,0,1.26-1.47h0a5.69,5.69,0,0,0,.67-2.51h0a3.26,3.26,0,0,0-.36-1.48h0a2,2,0,0,0-.5-.75h0a1.17,1.17,0,0,0-.5-.23h0l-.29,0h0Zm-.16-.14.05-.47-.05.47Zm-55.81,4.5a10,10,0,0,1,1.79-2.13,11.66,11.66,0,0,1,4.93-2.35l.86.07a3.67,3.67,0,0,1,1.94.89,2.21,2.21,0,0,1,.46,2.22,3.74,3.74,0,0,1-1.83,2.43,8.44,8.44,0,0,1-3.28,1.21c-1.19.18-1.84.39-2,.64s0,.57.45.94a7.24,7.24,0,0,0,3,1,13.56,13.56,0,0,0,4,.24,13.89,13.89,0,0,0,2.59-.53c.68-.22,1.41.49,1.78.44s.64.17.81.67c-.77.84-1.77.59-2.6.93a14.85,14.85,0,0,1-3,.82,17.76,17.76,0,0,1-4.32.09l-1-.12a12.11,12.11,0,0,1-3.59-1.21,4.37,4.37,0,0,1-1.34-1.29,4.22,4.22,0,0,1-.5-2A7.4,7.4,0,0,1,382.33,944.13Zm2.74.88a9.3,9.3,0,0,0,3.22-1c.57-.38.84-.77.81-1.15s-.45-.43-1.27-.13a4.54,4.54,0,0,0-1.75,1A15.14,15.14,0,0,0,385.07,945Z"/><path class="cls-13" d="M437.57,959.73a12.39,12.39,0,0,1-6.23-3h0a1,1,0,0,1-.34-.72h0a.91.91,0,0,1,0-.17h0a1.41,1.41,0,0,1,.41-.79h0a1.45,1.45,0,0,1,.81-.4h0l.15,0h0a1.13,1.13,0,0,1,.8.32h0a7.7,7.7,0,0,0,1.73,1.12h0a14.89,14.89,0,0,0,2,.8h0a14.39,14.39,0,0,0,3.12.56h0c.35,0,.69,0,1,0h0a11.55,11.55,0,0,0,2.11-.23h0a12.74,12.74,0,0,0,2.68-.85h0a6.1,6.1,0,0,0,2.73-3.1h0a16.17,16.17,0,0,0,.78-5.13h0a7.36,7.36,0,0,1-.55.7h0a6.18,6.18,0,0,1-1.14,1h0a4.48,4.48,0,0,1-1.76.72h0a1.63,1.63,0,0,1-.31,0h0a1.8,1.8,0,0,1-.82-.17h0a2.8,2.8,0,0,1-.87-.6h0a4.23,4.23,0,0,1-1.18-2.78h0c0-.1,0-.2,0-.3h0a7.39,7.39,0,0,1,.56-2.89h0a19.2,19.2,0,0,1,1.5-2.93h0c.14-.22.4-.58.79-1.09h0a13.1,13.1,0,0,1,1.41-1.52h0a8.13,8.13,0,0,1,1.76-1.24h0a2.84,2.84,0,0,1,1.26-.34h0a2.71,2.71,0,0,1,.69.08h0a1.22,1.22,0,0,1,.38.18h0a.47.47,0,0,1,.18.35h0a.17.17,0,0,1,0,.07h0a1.23,1.23,0,0,1-.31.61h.1a2,2,0,0,1,.41,0h0c.74.1,1.22.53,1.22,1.17h0v.11h0c-.09,1.72-.18,3.44-.26,5.16h0c-.09,1.72-.27,3.44-.45,5.15h0a19.36,19.36,0,0,1-.87,4.32h0a8.12,8.12,0,0,1-.87,1.84h0a7.81,7.81,0,0,1-2.39,2.29h0a12,12,0,0,1-3.15,1.37h0a14.58,14.58,0,0,1-3.57.5h0a17.81,17.81,0,0,1-3.52-.3Zm11.95-20.39a4.46,4.46,0,0,0-.55.59h0c-.19.23-.39.47-.59.73h0a8.26,8.26,0,0,0-1,1.45h0c-.25.5-.5,1-.74,1.52h0a7.69,7.69,0,0,0-.94,3.21h0v0h0a3.08,3.08,0,0,0,.12.9h0c.06.19.13.25.18.27h0l0,0h0a1.31,1.31,0,0,0,.16-.13h0a6.07,6.07,0,0,0,.47-.6h0a15.56,15.56,0,0,0,1.36-2.64h0a22.15,22.15,0,0,0,1-2.8h0c.26-.93.52-1.86.79-2.8h0l-.32.29Z"/><path class="cls-13" d="M455.39,950.33a6.23,6.23,0,0,1-2.08-1.9h0a1,1,0,0,1-.19-.53h0a1.22,1.22,0,0,1,.07-.38h0a1.77,1.77,0,0,1,.54-.75h0a1.67,1.67,0,0,1,.83-.36h.11a.89.89,0,0,1,.73.38h0a4.44,4.44,0,0,0,1.25,1.14h0a1,1,0,0,0,.53.17h0a.8.8,0,0,0,.59-.32h0l0,0h0s0-.08,0-.14h0a1.5,1.5,0,0,0,.09-.61h0v0h0a2.77,2.77,0,0,0-.23-.94h0a3,3,0,0,0-.92-1.13h0a9.72,9.72,0,0,0-.8-.59h0a3.31,3.31,0,0,1-.79-.7h0a3,3,0,0,1-.72-1.88h0a3.31,3.31,0,0,1,0-.62h0a4,4,0,0,1,1.53-2.6h0a6.77,6.77,0,0,1,2.67-1.33h0l.21,0h0a.8.8,0,0,1,.62.26h0a.9.9,0,0,1,.25.62h0a1.21,1.21,0,0,1,0,.19h0a1.6,1.6,0,0,1-1,1.23h0a4.92,4.92,0,0,0-.75.46h0a3.11,3.11,0,0,0-.71.69h0a1.42,1.42,0,0,0-.3.74h0v.06h0a.8.8,0,0,0,.36.61h0c.29.24.58.47.89.68h0a4.48,4.48,0,0,1,.89.8h0a9.4,9.4,0,0,1,.9,1.28h0a3.65,3.65,0,0,1,.53,1.51h0a4.73,4.73,0,0,1,0,.52h0a4.73,4.73,0,0,1-.45,2.08h0a3.24,3.24,0,0,1-2,1.71h0a3.74,3.74,0,0,1-1.11.21h0a3.21,3.21,0,0,1-1.7-.45Zm2.56-2.52v0Zm-.07-.06-.05,0,.05,0Z"/><path class="cls-13" d="M452.56,932.58c.2-.3.4-.58.83-.53a.64.64,0,0,1,.6.69,1.43,1.43,0,0,1-.24.59l-1.1,1.72c-.2.3-.41.58-.83.54a.66.66,0,0,1-.6-.7,1.43,1.43,0,0,1,.24-.59Z"/><path class="cls-13" d="M448.62,932.33c0-.35,0-.7.34-.93a.64.64,0,0,1,.89.19,1.36,1.36,0,0,1,.16.62l.16,2c0,.36,0,.71-.34.93a.65.65,0,0,1-.89-.19,1.32,1.32,0,0,1-.16-.62Z"/><path class="cls-13" d="M445.36,933.48a.87.87,0,0,1-.05-1,.65.65,0,0,1,.9-.18,1.5,1.5,0,0,1,.39.51l.94,1.81a.89.89,0,0,1,0,1,.65.65,0,0,1-.89.18,1.28,1.28,0,0,1-.39-.51Z"/><path class="cls-13" d="M445.31,936.11c.31.18.59.38.57.81a.66.66,0,0,1-.66.63,1.3,1.3,0,0,1-.6-.22l-1.76-1c-.31-.18-.6-.38-.57-.81a.65.65,0,0,1,.66-.63,1.3,1.3,0,0,1,.6.22Z"/><path class="cls-13" d="M455.28,934.77a.88.88,0,0,1,1-.15.65.65,0,0,1,.26.88,1.3,1.3,0,0,1-.46.44l-1.69,1.13a.88.88,0,0,1-1,.15.64.64,0,0,1-.26-.87,1.36,1.36,0,0,1,.45-.45Z"/></svg>